<?xml version="1.0" encoding="utf-8"?>
<!-- Generator: Adobe Illustrator 26.1.0, SVG Export Plug-In . SVG Version: 6.00 Build 0)  -->
<svg version="1.1" id="Layer_1" xmlns="http://www.w3.org/2000/svg" xmlns:xlink="http://www.w3.org/1999/xlink" x="0px" y="0px"
	 viewBox="0 0 341.1 341.75" style="enable-background:new 0 0 341.1 341.75;" xml:space="preserve">
<style type="text/css">
	.st0{fill:#FFFFFF;}
</style>
<path class="st0" d="M340.37,341.05c0.24-0.24,0.49-0.49,0.73-0.73c-51.88-54.36-103.77-108.72-156.31-163.77
	c39.18-1.78,77.2-3.51,115.23-5.24c0-0.28,0-0.55,0-0.83c-38.1-1.74-76.2-3.47-115.22-5.25C237.38,110.12,289.24,55.79,341.1,1.45
	c-0.24-0.24-0.49-0.49-0.73-0.73C285.98,52.61,231.6,104.5,176.53,157.04c-1.77-38.9-3.5-76.72-5.22-114.54
	c-0.28,0.01-0.56,0.02-0.84,0.02c-1.73,37.86-3.45,75.72-5.22,114.49C109.86,104.16,55.27,52.08,0.69,0C0.46,0.24,0.23,0.47,0,0.71
	c52.14,54.63,104.28,109.25,157.07,164.56c-38.81,1.77-76.62,3.49-114.44,5.22c0.01,0.27,0.02,0.54,0.02,0.81
	c37.82,1.72,75.64,3.44,114.42,5.2C104.27,231.82,52.14,286.44,0.01,341.06c0.24,0.23,0.47,0.46,0.71,0.69
	c54.62-52.11,109.24-104.23,164.54-157c1.77,38.89,3.5,76.7,5.22,114.52c0.28-0.01,0.56-0.02,0.84-0.02
	c1.73-37.87,3.45-75.74,5.22-114.52C231.68,237.34,286.03,289.2,340.37,341.05z"/>
</svg>
