<?xml version="1.0" encoding="utf-8"?>
<!-- Generator: Adobe Illustrator 26.1.0, SVG Export Plug-In . SVG Version: 6.00 Build 0)  -->
<svg version="1.1" id="Layer_1" xmlns="http://www.w3.org/2000/svg" xmlns:xlink="http://www.w3.org/1999/xlink" x="0px" y="0px"
	 viewBox="0 0 408.79 408.85" style="enable-background:new 0 0 408.79 408.85;" xml:space="preserve">
<path d="M408.79,213.19c-1.94,3.28-5.01,4.33-8.62,4.78c-34.94,4.39-69.87,8.87-104.8,13.32c-9.99,1.27-19.98,2.51-30.65,3.85
	c0.99,1.63,1.68,2.83,2.43,3.99c11.14,17.17,22.3,34.33,33.42,51.51c0.86,1.33,2.16,2.78,2.16,4.17c-0.01,2.2-0.32,5.05-1.7,6.39
	c-1.38,1.34-4.26,1.61-6.44,1.49c-1.52-0.09-3.02-1.54-4.41-2.54c-15.43-11.11-30.84-22.24-46.25-33.37
	c-1.15-0.83-2.35-1.58-3.98-2.67c-1.8,11.1-3.52,21.67-5.22,32.24c-5.66,35.16-11.24,70.32-17.11,105.44
	c-0.42,2.53-2.93,4.71-4.46,7.05c-1.33,0-2.66,0-3.99,0c-3.92-1.77-4.73-5.36-5.51-9.09c-9.59-45.64-19.22-91.28-28.85-136.92
	c-0.16-0.75-0.46-1.47-0.8-2.53c-1.43,0.98-2.62,1.75-3.78,2.59c-17.26,12.45-34.51,24.92-51.78,37.35c-1.39,1-2.9,2.4-4.43,2.51
	c-2.06,0.15-4.85-0.11-6.12-1.4c-1.4-1.41-1.89-4.18-1.9-6.36c0-1.51,1.39-3.09,2.32-4.53c10.05-15.52,20.12-31.01,30.19-46.51
	c0.78-1.21,1.51-2.44,2.58-4.17c-10.47-1.73-20.49-3.4-30.51-5.04c-34.49-5.65-68.99-11.28-103.48-16.95
	c-4.56-0.75-7.07-3.25-7.08-6.79c-0.02-3.49,2.3-5.84,7.03-6.79c39.6-7.96,79.21-15.88,118.81-23.82c6.5-1.3,13-2.63,20.05-4.05
	c-0.96-1.54-1.68-2.73-2.44-3.9c-11.74-18.06-23.49-36.12-35.22-54.18c-0.72-1.11-1.45-2.24-2.02-3.43
	c-1.32-2.73-0.75-5.27,1.31-7.32c2.2-2.2,4.89-2.62,7.68-1.11c1.28,0.69,2.46,1.58,3.64,2.44c15.53,11.2,31.06,22.42,46.59,33.62
	c1.26,0.91,2.56,1.77,4.27,2.95c2.03-13.12,3.98-25.68,5.91-38.24c5.13-33.37,10.24-66.75,15.37-100.13c0.58-3.75,2.25-6.6,6.4-7.02
	c3.51-0.36,6.01,1.93,7.15,6.61c10.87,44.8,21.71,89.61,32.57,134.42c0.34,1.42,0.7,2.83,1.19,4.81c1.37-0.9,2.55-1.61,3.67-2.41
	c16.07-11.59,32.14-23.2,48.21-34.79c1.29-0.93,2.66-2.35,4.04-2.41c2.31-0.09,5.38,0,6.8,1.38c1.42,1.38,1.54,4.42,1.58,6.75
	c0.02,1.26-1.23,2.59-2.02,3.81c-11.36,17.51-22.75,35.01-34.12,52.52c-0.79,1.21-1.54,2.45-2.65,4.23
	c6.03,1.32,11.66,2.59,17.31,3.78c39.65,8.36,79.3,16.71,118.97,25.02c3.63,0.76,6.99,1.74,8.71,5.45
	C408.79,210.53,408.79,211.86,408.79,213.19z M138.04,268.9c0.19,0.18,0.39,0.36,0.58,0.53c11-7.93,21.99-15.86,32.99-23.79
	c8.16-5.89,12.2-4.29,14.29,5.61c7.74,36.8,15.49,73.59,23.26,110.38c0.14,0.68,0.5,1.31,0.94,2.47c0.35-0.93,0.54-1.26,0.6-1.61
	c5.89-36.48,11.77-72.96,17.64-109.44c1.15-7.12,6.13-9.29,12-5.11c5.96,4.24,11.86,8.56,17.8,12.83c4.02,2.89,8.05,5.77,12.08,8.65
	c-0.21-1.61-0.9-2.7-1.6-3.78c-6.67-10.26-13.38-20.48-19.99-30.77c-3.76-5.85-1.74-10.37,5.02-11.55c0.92-0.16,1.83-0.33,2.76-0.45
	c30.33-3.83,60.67-7.65,91-11.49c4.17-0.53,8.33-1.16,12.5-1.74c-0.66-0.89-1.28-1.1-1.9-1.23c-34.45-7.26-68.9-14.5-103.35-21.78
	c-8.55-1.81-10.32-6.04-5.61-13.3c5.86-9.04,11.74-18.06,17.61-27.09c1.32-2.03,2.61-4.07,3.92-6.11c-1.76,0.33-2.96,1.1-4.11,1.93
	c-8.85,6.38-17.68,12.78-26.53,19.14c-6.29,4.52-10.75,2.94-12.56-4.51c-8.49-34.99-16.95-69.98-25.42-104.97
	c-0.75-3.1-1.6-6.19-2.4-9.28c-6.48,38.23-12.36,76.32-18.27,114.41c-1.04,6.71-6.01,8.89-11.52,4.99
	c-9.33-6.61-18.56-13.37-27.84-20.06c-1.12-0.81-2.29-1.54-3.43-2.31c0.28,1.5,0.94,2.6,1.64,3.68
	c7.03,10.82,14.09,21.61,21.07,32.45c4,6.22,2.13,10.69-5.13,12.16c-29.04,5.86-58.1,11.66-87.15,17.49
	c-7.87,1.58-15.74,3.19-23.61,4.79c1.9,0.92,3.73,1.26,5.56,1.56c33.44,5.51,66.88,10.97,100.31,16.53
	c7.89,1.31,9.66,5.65,5.28,12.41C150.34,250,144.18,259.45,138.04,268.9z"/>
<g>
</g>
<g>
</g>
<g>
</g>
<g>
</g>
<g>
</g>
<g>
</g>
<g>
</g>
<g>
</g>
<g>
</g>
<g>
</g>
<g>
</g>
</svg>
